<svg width="32" height="32" viewBox="0 0 32 32" fill="none" xmlns="http://www.w3.org/2000/svg">
  <circle cx="16" cy="16" r="15" fill="#1976d2" stroke="white" stroke-width="2"/>
  <path d="M21 16C21 16 19 13 16 13C13 13 11 16 11 16C11 16 13 19 16 19C19 19 21 16 21 16Z" fill="white"/>
  <path d="M16 13L14 11L13 12L16 13Z" fill="white"/>
  <path d="M16 13L18 11L19 12L16 13Z" fill="white"/>
  <circle cx="17" cy="15" r="1" fill="#1976d2"/>
  <path d="M21 16L23 15L24 16L23 17L21 16Z" fill="white"/>
</svg>
