<svg width="40" height="40" viewBox="0 0 40 40" fill="none" xmlns="http://www.w3.org/2000/svg">
  <!-- Shadow -->
  <ellipse cx="20" cy="38" rx="8" ry="2" fill="black" opacity="0.2"/>

  <!-- Pin shape -->
  <path d="M20 2C13.373 2 8 7.373 8 14C8 22.5 20 38 20 38C20 38 32 22.5 32 14C32 7.373 26.627 2 20 2Z" fill="#d32f2f" stroke="white" stroke-width="2"/>

  <!-- Fish icon inside pin -->
  <circle cx="20" cy="14" r="8" fill="white"/>
  <path d="M24 14C24 14 22.5 11.5 20 11.5C17.5 11.5 16 14 16 14C16 14 17.5 16.5 20 16.5C22.5 16.5 24 14 24 14Z" fill="#d32f2f"/>
  <path d="M20 11.5L18.5 10L17.5 10.5L20 11.5Z" fill="#d32f2f"/>
  <path d="M20 11.5L21.5 10L22.5 10.5L20 11.5Z" fill="#d32f2f"/>
  <circle cx="21" cy="13" r="0.5" fill="white"/>
  <path d="M24 14L25.5 13.5L26 14L25.5 14.5L24 14Z" fill="#d32f2f"/>
</svg>
